<svg width="169" height="117" viewBox="0 0 169 117" fill="none" xmlns="http://www.w3.org/2000/svg">
<g clip-path="url(#clip0_86_195)">
<path d="M41.0591 111.284C75.684 124.232 115.093 113.784 144.789 93.7885C157.431 85.266 167.618 73.3632 168.876 57.7113C170.093 42.6535 162.504 29.9312 150.935 20.7326C138.665 11.0014 123.693 5.36754 108.412 2.41745C89.4185 -1.24969 69.5798 -0.819463 50.9166 4.32272C35.1611 8.66592 19.3025 16.3485 9.09448 29.4395C-0.371172 41.5267 -2.78398 57.5883 3.44396 71.7037C9.46568 85.4094 22.4784 94.3621 36.0891 99.6887C55.1854 107.166 76.2614 108.928 96.6157 107.904C101.854 107.638 107.071 107.187 112.268 106.613C113.443 106.49 112.474 104.114 111.464 104.237C91.7075 106.408 71.6008 106.716 52.1333 102.311C37.0171 98.8897 21.0554 92.8256 10.8474 80.6565C0.721813 68.5693 -1.07233 51.3604 6.53731 37.5523C13.8789 24.2564 27.3865 15.5495 41.2859 10.1615C58.3406 3.52373 76.9832 1.29068 95.2133 2.84767C111.113 4.22028 127.157 8.27667 141.057 16.2665C153.162 23.232 165.061 33.9671 166.917 48.4717C168.938 64.0826 160.999 78.0137 149.058 87.54C136.149 97.8449 120.269 105.364 104.432 109.953C87.7687 114.767 69.9097 116.283 52.8551 112.575C48.71 111.673 44.668 110.444 40.7085 108.969C39.5124 108.518 40.1311 110.956 41.0591 111.305" fill="#CCCCCC"/>
</g>
<defs>
<clipPath id="clip0_86_195">
<rect width="169" height="117" fill="white"/>
</clipPath>
</defs>
</svg>
