<svg width="479" height="15" viewBox="0 0 479 15" fill="none" xmlns="http://www.w3.org/2000/svg">
<g clip-path="url(#clip0_34_198)">
<path d="M192.207 9.85726C225.628 17.3335 261.006 13.762 295.014 14.2382C334.013 14.762 373.012 15.4287 412.061 14.6668C434.325 14.1906 456.589 13.2382 478.804 11.5239C479.587 11.4763 478.413 7.66679 477.385 7.61917C413.431 5.33345 349.427 4.90488 285.472 4.04774C221.371 3.23822 157.269 2.14298 93.1187 2.90488C77.6071 3.09536 62.1445 3.1906 46.6818 4.1906C31.4149 5.14298 15.5118 6.66679 0.538492 2.76202L2.10433 6.52393C5.08921 2.42869 8.90595 4.33345 13.3099 4.28583C14.4842 4.28583 13.1631 0.381072 12.0866 0.381072C7.19331 0.428691 3.42551 -1.52369 0.147032 2.9525C-0.440158 3.80964 0.783154 6.47631 1.71287 6.71441C13.6035 9.76202 26.0323 9.38107 38.2165 8.71441C52.8473 7.90488 67.4292 7.1906 82.1089 6.9525C113.768 6.52393 145.428 6.33345 177.087 6.47631C241.139 6.76202 305.192 8.04774 369.245 8.9525C405.699 9.47631 442.154 10.1906 478.56 11.4763C478.071 10.1906 477.63 8.90488 477.141 7.57155C426.691 11.5239 376.046 11.3811 325.45 10.762C302.452 10.4763 279.454 10.0954 256.406 10.3335C234.583 10.5715 212.367 10.7144 190.984 5.90488C190.054 5.71441 190.984 9.52393 192.207 9.80964" fill="black"/>
</g>
<defs>
<clipPath id="clip0_34_198">
<rect width="479" height="15" fill="white"/>
</clipPath>
</defs>
</svg>
