<svg width="334" height="110" viewBox="0 0 334 110" fill="none" xmlns="http://www.w3.org/2000/svg">
<g clip-path="url(#clip0_443_251)">
<path d="M81.1468 104.626C149.577 116.799 227.463 106.976 286.152 88.1772C311.136 80.1646 331.27 68.9739 333.756 54.2585C336.161 40.1016 321.162 28.1404 298.298 19.4922C274.048 10.3432 244.458 5.04641 214.217 2.27282C176.68 -1.17491 137.472 -0.789693 100.588 4.0641C69.4496 8.14745 38.1078 15.3703 17.9333 27.6782C-0.733171 39.0422 -5.50169 54.1429 6.80679 67.4138C19.1153 80.6847 44.4251 88.7165 71.3244 93.7244C109.065 100.755 150.718 102.411 190.945 101.448C201.297 101.198 211.608 100.774 221.879 100.235C224.202 100.119 222.327 97.8848 220.29 98.0004C181.245 100.042 141.507 100.331 103.033 96.1898C73.1585 92.9732 41.6129 87.2719 21.4384 75.8309C1.2639 64.3898 -2.11889 48.2875 12.9203 35.3056C27.9594 22.3236 54.1659 14.6192 81.5951 9.5535C115.301 3.31292 152.145 1.21346 188.173 2.6773C219.597 3.96779 251.305 7.78149 278.775 15.2933C302.699 21.8421 326.216 31.9349 329.925 45.5717C333.919 60.2487 318.228 73.3462 294.63 82.3026C269.116 91.9909 237.733 99.0597 206.432 103.374C173.501 107.901 138.165 109.326 104.5 105.84C96.349 104.992 88.3199 103.856 80.4947 102.45C78.1308 102.026 79.3535 104.318 81.1875 104.645L81.1468 104.626Z" fill="#CCCCCC"/>
</g>
<defs>
<clipPath id="clip0_443_251">
<rect width="334" height="110" fill="white"/>
</clipPath>
</defs>
</svg>
