<svg width="174" height="168" viewBox="0 0 174 168" fill="none" xmlns="http://www.w3.org/2000/svg">
<g clip-path="url(#clip0_86_73)">
<path d="M22.8899 31.9357C6.80847 47.5658 -1.35548 70.2585 0.184891 92.552C1.75607 115.337 14.1406 136.218 32.0705 150.159C67.0369 177.335 118.608 172.606 149.816 141.807C180.192 111.836 182.133 60.34 154.745 27.6981C139.373 9.3965 115.189 -0.583394 91.3747 4.61582e-05C68.4848 0.583486 46.8581 11.3311 31.9473 28.5272C16.3588 46.4603 8.81095 70.6884 13.0316 94.241C17.1906 117.425 33.2412 137.262 55.7306 145.062C61.1219 146.935 66.698 147.979 72.3665 148.255C73.6605 148.317 75.4781 145.031 74.1534 144.97C52.465 143.925 32.5018 130.629 22.4278 111.56C11.0291 89.9726 12.4154 62.9501 24.5843 42.0077C35.5826 23.0306 54.9604 9.05872 76.5255 4.75969C99.1382 0.245705 123.63 6.11081 141.714 20.359C173.569 45.4777 181.117 96.1141 157.826 129.339C134.228 163.025 85.1824 174.479 48.6449 156.086C29.914 146.658 14.5719 130.353 7.23978 110.639C-0.369643 90.0955 1.72526 66.113 13.0624 47.2587C16.0199 42.3148 19.6551 37.8622 23.7833 33.8396C25.0772 32.5806 24.7692 30.124 22.8899 31.9357Z" fill="#CCCCCC"/>
</g>
<defs>
<clipPath id="clip0_86_73">
<rect width="174" height="168" fill="white"/>
</clipPath>
</defs>
</svg>
