<svg width="60" height="154" viewBox="0 0 60 154" fill="none" xmlns="http://www.w3.org/2000/svg">
<path d="M56.0913 28.3668L31.8764 4.03285C29.3598 1.49806 26.0044 0.0898438 22.4253 0.0898438H4.41796C1.95733 0.0898438 0 2.11768 0 4.53981V27.8599C0 30.3383 2.01325 32.3098 4.41796 32.3098H27.9617V120.971H4.41796C1.95733 120.971 0 122.999 0 125.421V148.685C0 151.163 2.01325 153.135 4.41796 153.135H22.4253C25.9485 153.135 29.3598 151.727 31.8764 149.192L56.0913 124.801C58.6078 122.267 60.0059 118.887 60.0059 115.282V37.8864C60.0059 34.3377 58.6078 30.9016 56.0913 28.3668Z" fill="#96E900"/>
</svg>
