<svg width="214" height="12" viewBox="0 0 214 12" fill="none" xmlns="http://www.w3.org/2000/svg">
<g clip-path="url(#clip0_86_99)">
<path d="M210.708 12C211.402 11.8863 212.096 11.8294 212.79 11.8294L213.702 10.5782C185.582 9.85783 157.6 7.10902 129.558 5.15641C101.536 3.22276 73.5346 3.14693 45.4534 2.57821C37.977 2.42655 30.5204 2.08532 23.044 1.95262C15.865 1.81992 8.34897 3.16589 1.408 0.758307C1.17002 1.15641 0.951877 1.53556 0.713901 1.93366C3.45063 0.853094 6.346 1.28911 9.18188 1.68722C12.3549 2.14219 15.5279 2.38864 18.7208 2.61613C25.2849 3.0711 31.8689 3.37442 38.4529 3.62087C51.6606 4.0948 64.8881 4.41707 78.1156 4.4929C104.789 4.62561 131.462 3.90523 158.135 4.2275C173.009 4.41707 187.882 5.06162 202.736 4.0948C203.39 4.05689 204.342 2.76779 203.311 2.84362C189.826 3.71565 176.32 3.24172 162.815 3.03319C149.429 2.8057 136.043 2.88153 122.657 2.99527C95.3689 3.22276 68.1405 3.37442 40.8525 2.42655C33.277 2.16115 25.7212 1.81992 18.1655 1.27016C14.933 1.04267 11.7798 0.625606 8.58694 0.227501C5.96921 -0.0947736 3.3713 -0.208518 0.912215 0.758307C0.674239 0.853094 -0.456148 1.70617 0.218118 1.93366C5.57258 3.79148 11.2642 3.50712 16.8566 3.31755C23.8174 3.0711 30.7782 3.52608 37.739 3.6967C51.4623 4.03793 65.1856 4.15167 78.9287 4.37916C107.664 4.81518 136.221 6.99527 164.878 9.17537C180.842 10.3886 196.826 11.4503 212.83 11.8484C213.445 11.8484 214.575 10.6161 213.742 10.5972C212.889 10.5782 212.156 10.654 211.303 10.7678C210.668 10.8436 209.716 12.1517 210.728 12.019" fill="black"/>
</g>
<defs>
<clipPath id="clip0_86_99">
<rect width="214" height="12" fill="white"/>
</clipPath>
</defs>
</svg>
