<svg width="24" height="20" viewBox="0 0 24 20" fill="none" xmlns="http://www.w3.org/2000/svg">
<path d="M20.7383 0.175306C20.9744 -0.0584354 21.3552 -0.0584354 21.5913 0.175306L23.8229 2.38454C24.059 2.61828 24.059 2.99529 23.8229 3.22903L16.9758 10L23.8229 16.7785C24.059 17.0123 24.059 17.3893 23.8229 17.623L21.5989 19.8247C21.3628 20.0584 20.982 20.0584 20.7459 19.8247L13.7083 12.8577C13.2513 12.4053 13 11.7945 13 11.1612V8.83129C13 8.19793 13.259 7.58718 13.7083 7.13478L20.7383 0.175306Z" fill="#A6CE39"/>
<path d="M0.708327 7.14771L7.74589 0.175439C7.982 -0.0584795 8.36282 -0.0584795 8.59893 0.175439L10.8229 2.3788C11.059 2.61271 11.059 2.99 10.8229 3.22392L3.98338 10L10.8229 16.7761C11.059 17.01 11.059 17.3873 10.8229 17.6212L8.59893 19.8246C8.36282 20.0585 7.982 20.0585 7.74589 19.8246L0.708327 12.8523C0.251342 12.3995 1.27787e-07 11.7959 1.27787e-07 11.1545V8.82286C1.27787e-07 8.18902 0.251342 7.57781 0.708327 7.12507" fill="#A6CE39"/>
</svg>
