<svg width="191" height="37" viewBox="0 0 191 37" fill="none" xmlns="http://www.w3.org/2000/svg">
<g clip-path="url(#clip0_86_76)">
<path d="M138.21 0H135.504C134.208 0 133.158 1.05077 133.158 2.347V5.05354C133.158 6.34976 134.208 7.40053 135.504 7.40053H138.21C139.506 7.40053 140.556 6.34976 140.556 5.05354V2.347C140.556 1.05077 139.506 0 138.21 0Z" fill="#96E900"/>
<path d="M188.23 0H186.996C185.864 0 184.942 0.922081 184.942 2.05511V3.28898C184.942 4.42201 185.864 5.34409 186.996 5.34409H188.23C189.363 5.34409 190.284 4.42201 190.284 3.28898V2.05511C190.286 0.922081 189.364 0 188.23 0ZM189.875 3.28898C189.875 4.19646 189.137 4.93413 188.23 4.93413H186.996C186.089 4.93413 185.352 4.19646 185.352 3.28898V2.05511C185.352 1.14763 186.089 0.411288 186.996 0.411288H188.23C189.137 0.411288 189.875 1.14895 189.875 2.05511V3.28898Z" fill="black"/>
<path d="M188.381 2.71179C188.489 2.6282 188.543 2.49686 188.543 2.31907V2.24212C188.543 2.02454 188.467 1.8786 188.316 1.8043C188.164 1.72868 187.962 1.69153 187.709 1.69153H186.544V3.65112H186.898L186.894 2.871H187.465L188.211 3.65112H188.684L187.928 2.86569C188.121 2.84711 188.272 2.79537 188.381 2.71046M186.894 2.54595V2.01658H187.808C187.845 2.01658 187.873 2.01791 187.892 2.01923C187.946 2.01923 187.997 2.02587 188.046 2.04179C188.145 2.0723 188.194 2.13996 188.194 2.24478V2.31244C188.194 2.38408 188.174 2.43583 188.137 2.47032C188.101 2.50349 188.052 2.52472 187.994 2.53268C187.937 2.54064 187.859 2.54595 187.759 2.54595H186.896H186.894Z" fill="black"/>
<path d="M138.21 14.7997H135.504C134.208 14.7997 133.158 15.8505 133.158 17.1467V34.653C133.158 35.9492 134.208 36.9999 135.504 36.9999H138.21C139.506 36.9999 140.556 35.9492 140.556 34.653V17.1467C140.556 15.8505 139.506 14.7997 138.21 14.7997Z" fill="black"/>
<path d="M93.8238 7.4005H91.118C89.8222 7.4005 88.7717 8.45127 88.7717 9.74749V11.1008L86.0965 8.42474C85.4413 7.76933 84.5527 7.4005 83.6256 7.4005H68.0265C67.0994 7.4005 66.2107 7.76933 65.5555 8.42474L60.2051 13.7768C59.5499 14.4322 59.1812 15.3211 59.1812 16.2485V28.152C59.1812 29.0794 59.5499 29.9683 60.2051 30.6237L65.5555 35.9757C66.2107 36.6311 67.0994 37 68.0265 37H83.6256C84.5527 37 85.4413 36.6311 86.0965 35.9757L88.7717 33.2997V34.653C88.7717 35.9492 89.8222 37 91.118 37H93.8238C95.1196 37 96.1701 35.9492 96.1701 34.653V9.74616C96.1701 8.44994 95.1196 7.39917 93.8238 7.39917M88.7717 29.5994H66.5781V14.7997H88.7717V29.5994Z" fill="black"/>
<path d="M49.438 0H46.7323C45.4364 0 44.386 1.05077 44.386 2.347V34.653C44.386 35.9492 45.4364 37 46.7323 37H49.438C50.7338 37 51.7843 35.9492 51.7843 34.653V2.347C51.7843 1.05077 50.7338 0 49.438 0Z" fill="black"/>
<path d="M178.569 8.42341C177.914 7.768 177.025 7.39917 176.098 7.39917H156.8C155.873 7.39917 154.984 7.768 154.329 8.42341L148.978 13.7755C148.323 14.4309 147.954 15.3198 147.954 16.2472V35.8338C147.954 36.4772 148.476 36.9986 149.119 36.9986H154.187C154.83 36.9986 155.351 36.4772 155.351 35.8338V14.7997H177.545V35.8338C177.545 36.4772 178.066 36.9986 178.709 36.9986H183.777C184.421 36.9986 184.942 36.4772 184.942 35.8338V16.2485C184.942 15.3211 184.573 14.4322 183.918 13.7768L178.568 8.42474L178.569 8.42341Z" fill="black"/>
<path d="M123.414 7.40053H110.965V1.16487C110.965 0.521407 110.444 0 109.801 0H104.733C104.09 0 103.568 0.521407 103.568 1.16487V28.152C103.568 29.0794 103.937 29.9683 104.592 30.6237L109.943 35.9758C110.598 36.6312 111.487 37 112.414 37H124.596C125.239 37 125.761 36.4786 125.761 35.8351V30.7657C125.761 30.1222 125.239 29.6008 124.596 29.6008H110.965V14.7997H123.414C124.71 14.7997 125.761 13.749 125.761 12.4527V9.7462C125.761 8.44998 124.71 7.3992 123.414 7.3992" fill="black"/>
<path d="M30.6145 1.02424C29.9593 0.368832 29.0707 0 28.1436 0H8.84535C7.91824 0 7.02959 0.368832 6.37438 1.02424L1.02393 6.37629C0.368722 7.0317 0 7.92061 0 8.848V14.7997C0 15.4432 0.521251 15.9646 1.16452 15.9646H6.23246C6.87574 15.9646 7.39699 15.4432 7.39699 14.7997V7.3992H29.5906V22.1989H8.84535C7.91824 22.1989 7.02959 22.5678 6.37438 23.2232L1.02393 28.5752C0.368722 29.2306 0 30.1195 0 31.0469V35.8338C0 36.4773 0.521251 36.9987 1.16452 36.9987H6.23246C6.87574 36.9987 7.39699 36.4773 7.39699 35.8338V29.5995H28.1436C29.0707 29.5995 29.9593 29.2306 30.6145 28.5752L35.965 23.2232C36.6202 22.5678 36.9889 21.6789 36.9889 20.7515V8.848C36.9889 7.92061 36.6202 7.0317 35.965 6.37629L30.6145 1.02424Z" fill="black"/>
</g>
<defs>
<clipPath id="clip0_86_76">
<rect width="190.286" height="37" fill="white"/>
</clipPath>
</defs>
</svg>
