<svg width="34" height="25" viewBox="0 0 34 25" fill="none" xmlns="http://www.w3.org/2000/svg">
<path fill-rule="evenodd" clip-rule="evenodd" d="M0.5 2C0.5 1.17157 1.17157 0.5 2 0.5H32C32.8284 0.5 33.5 1.17157 33.5 2C33.5 2.82843 32.8284 3.5 32 3.5H2C1.17157 3.5 0.5 2.82843 0.5 2ZM0.5 12.75C0.5 11.9216 1.17157 11.25 2 11.25H32C32.8284 11.25 33.5 11.9216 33.5 12.75C33.5 13.5784 32.8284 14.25 32 14.25H2C1.17157 14.25 0.5 13.5784 0.5 12.75ZM0.5 23.5C0.5 22.6716 1.17157 22 2 22H32C32.8284 22 33.5 22.6716 33.5 23.5C33.5 24.3284 32.8284 25 32 25H2C1.17157 25 0.5 24.3284 0.5 23.5Z" fill="white"/>
</svg>

