<svg width="100" height="100" viewBox="0 0 100 100" fill="none" xmlns="http://www.w3.org/2000/svg">
<g clip-path="url(#clip0_444_256)">
<path d="M83.0629 2.05296L2.04999 83.0659C0.914913 84.2009 0.914916 86.0413 2.04999 87.1763L12.8205 97.9468C13.9556 99.0819 15.7959 99.0819 16.931 97.9468L97.9439 16.9339C99.0789 15.7989 99.0789 13.9585 97.9439 12.8235L87.1734 2.05296C86.0383 0.917881 84.198 0.91788 83.0629 2.05296Z" fill="#96E900"/>
<path d="M92.7153 100H73.1053C70.2355 97.1302 68.6534 95.5481 65.7837 92.6784V73.0684L73.1053 65.7468H92.7153C95.585 68.6166 97.1671 70.1986 100.037 73.0684V92.6784C97.1671 95.5481 95.585 97.1302 92.7153 100Z" fill="#96E900"/>
<path d="M26.8948 34.2163H7.32156C4.4518 31.3466 2.86976 29.7645 0 26.8948V7.32156C2.86976 4.4518 4.4518 2.86976 7.32156 0H26.8948L34.2163 7.32156V26.8948L26.8948 34.2163Z" fill="#96E900"/>
</g>
<defs>
<clipPath id="clip0_444_256">
<rect width="100" height="100" fill="white"/>
</clipPath>
</defs>
</svg>
