<svg width="24" height="20" viewBox="0 0 24 20" fill="none" xmlns="http://www.w3.org/2000/svg">
<path d="M3.26173 0.175306C3.02562 -0.0584354 2.6448 -0.0584354 2.40869 0.175306L0.177082 2.38454C-0.0590272 2.61828 -0.0590272 2.99529 0.177082 3.22903L7.02423 10L0.177082 16.7785C-0.0590272 17.0123 -0.0590272 17.3893 0.177082 17.623L2.40107 19.8247C2.63718 20.0584 3.018 20.0584 3.25411 19.8247L10.2917 12.8577C10.7487 12.4053 11 11.7945 11 11.1612V8.83129C11 8.19793 10.741 7.58718 10.2917 7.13478L3.26173 0.175306Z" fill="#A6CE39"/>
<path d="M23.2917 7.14771L16.2541 0.175439C16.018 -0.0584795 15.6372 -0.0584795 15.4011 0.175439L13.1771 2.3788C12.941 2.61271 12.941 2.99 13.1771 3.22392L20.0166 10L13.1771 16.7761C12.941 17.01 12.941 17.3873 13.1771 17.6212L15.4011 19.8246C15.6372 20.0585 16.018 20.0585 16.2541 19.8246L23.2917 12.8523C23.7487 12.3995 24 11.7959 24 11.1545V8.82286C24 8.18902 23.7487 7.57781 23.2917 7.12507" fill="#A6CE39"/>
</svg>
