<svg width="100" height="106" viewBox="0 0 100 106" fill="none" xmlns="http://www.w3.org/2000/svg">
<path d="M5.03301 83.0907C3.31106 83.0907 1.94132 84.5082 1.94132 86.2013L1.94132 102.621C1.94132 104.353 3.3502 105.731 5.03301 105.731L72.3457 105.731C75.6331 105.731 78.803 104.432 81.1512 102.069L96.2574 86.8707C98.6055 84.5082 99.897 81.3582 99.897 78.0113L99.897 10.2867C99.897 8.55416 98.4881 7.17604 96.8053 7.17604L80.6033 7.17604C78.8813 7.17604 77.4724 8.59354 77.4724 10.2867L77.4724 83.0907L5.03301 83.0907Z" fill="white"/>
<path d="M66.031 50.6459L16.6031 0.915486C15.3899 -0.305133 13.4332 -0.305133 12.22 0.915486L0.909884 12.2948C-0.303311 13.5154 -0.303311 15.4842 0.909885 16.7048L50.3378 66.4352C51.551 67.6558 53.5077 67.6558 54.7209 66.4352L66.031 55.0559C67.2442 53.8352 67.2442 51.8665 66.031 50.6459Z" fill="white"/>
</svg>
